<?xml version="1.0" encoding="UTF-8"?>
<svg version="1.1" xmlns="http://www.w3.org/2000/svg" width="1320" height="1000">
<path d="M0 0 C435.6 0 871.2 0 1320 0 C1320 330 1320 660 1320 1000 C884.4 1000 448.8 1000 0 1000 C0 670 0 340 0 0 Z " fill="#F5F5F5" transform="translate(0,0)"/>
<path d="M0 0 C14.52 -0.103125 29.04 -0.20625 44 -0.3125 C48.55296875 -0.35802002 53.1059375 -0.40354004 57.796875 -0.45043945 C63.4375 -0.47302246 63.4375 -0.47302246 66.09375 -0.47721863 C67.91477604 -0.48480275 69.73577999 -0.5021888 71.55664062 -0.52787781 C91.28502123 -0.79183922 107.98399292 2.88176727 122.8984375 16.7421875 C134.01251001 28.6825851 137.43068265 43.03991548 137.2734375 58.953125 C136.5956115 72.87204697 131.10938921 84.44619913 121.0625 93.9375 C116.9627151 97.41704513 112.99245737 100.02507208 108 102 C107.29617188 102.28488281 106.59234375 102.56976562 105.8671875 102.86328125 C102.61825019 104.12808895 99.38956261 105.19760354 96 106 C96.85722656 106.9178125 97.71445312 107.835625 98.59765625 108.78125 C109.37755646 120.34330798 109.37755646 120.34330798 114.328125 126.078125 C116.35758073 128.41105074 118.427647 130.70511245 120.5 133 C123.76022255 136.61267904 126.98143565 140.25488991 130.17578125 143.92578125 C133.04263202 147.18551949 135.96588484 150.39410784 138.88671875 153.60546875 C145 160.5323475 145 160.5323475 145 164 C139.91416971 164.27419459 134.83272701 164.47250483 129.74121094 164.60424805 C128.01421114 164.6592039 126.28771466 164.73400699 124.5625 164.82983398 C110.27385409 165.60297542 110.27385409 165.60297542 104.73144531 161.69580078 C102.19259679 158.91750014 100.09163097 156.12386104 98 153 C96.51482396 151.15463737 95.01667691 149.31956101 93.5 147.5 C92.7678125 146.5925 92.035625 145.685 91.28125 144.75 C88.93281032 141.91900422 86.49090098 139.20616402 84 136.5 C79.98106679 132.13321476 76.18942845 127.64062934 72.49609375 122.99609375 C71.67238281 122.00738281 70.84867188 121.01867187 70 120 C69.42789795 119.16629883 68.8557959 118.33259766 68.26635742 117.47363281 C65.06709713 113.23611204 62.72441292 110.43755892 57.4621582 109.10229492 C53.40928911 108.79330453 49.50239238 108.76865043 45.4375 108.875 C40.673125 108.91625 35.90875 108.9575 31 109 C31 127.15 31 145.3 31 164 C20.77 164 10.54 164 0 164 C0 109.88 0 55.76 0 0 Z " fill="#131313" transform="translate(680,419)"/>
<path d="M0 0 C40.59 0 81.18 0 123 0 C123 9.9 123 19.8 123 30 C92.64 30 62.28 30 31 30 C31 42.54 31 55.08 31 68 C60.37 68 89.74 68 120 68 C120 77.24 120 86.48 120 96 C90.63 96 61.26 96 31 96 C31 108.21 31 120.42 31 133 C61.36 133 91.72 133 123 133 C123 143.23 123 153.46 123 164 C82.41 164 41.82 164 0 164 C0 109.88 0 55.76 0 0 Z " fill="#131313" transform="translate(999,419)"/>
<path d="M0 0 C40.59 0 81.18 0 123 0 C123 9.9 123 19.8 123 30 C92.31 30 61.62 30 30 30 C30 42.54 30 55.08 30 68 C59.37 68 88.74 68 119 68 C119 77.24 119 86.48 119 96 C89.63 96 60.26 96 30 96 C30 108.21 30 120.42 30 133 C60.69 133 91.38 133 123 133 C123 143.23 123 153.46 123 164 C82.41 164 41.82 164 0 164 C0 109.88 0 55.76 0 0 Z " fill="#121212" transform="translate(533,419)"/>
<path d="M0 0 C5.30992165 5.0507095 8.76696796 10.1165532 12.140625 16.57421875 C8.56058691 18.39328204 4.97605827 20.20331584 1.390625 22.01171875 C0.37484375 22.52798828 -0.6409375 23.04425781 -1.6875 23.57617188 C-2.6671875 24.06923828 -3.646875 24.56230469 -4.65625 25.0703125 C-5.55698242 25.52591553 -6.45771484 25.98151855 -7.38574219 26.45092773 C-9.55983857 27.43819752 -11.52862897 28.09617798 -13.859375 28.57421875 C-14.519375 27.58421875 -15.179375 26.59421875 -15.859375 25.57421875 C-21.83651444 18.56998137 -33.40869749 13.22281237 -42.44921875 11.7421875 C-56.38000798 10.77132212 -69.36311272 11.02843358 -80.7421875 20.0703125 C-84.65003667 24.54759112 -84.5880188 29.8193496 -84.33203125 35.54296875 C-83.60016488 40.23659107 -82.60057495 41.596529 -78.859375 44.57421875 C-68.17060377 51.60828132 -52.47716306 52.41992863 -40.109375 54.07421875 C-21.71984453 56.59117472 -2.77347869 61.14570373 9.140625 76.57421875 C17.13828053 88.53608016 19.36210342 102.53458131 16.578125 116.69921875 C11.90457838 131.33650711 3.70542016 141.66337927 -9.8125 149.07421875 C-33.69433134 160.83142803 -63.35366853 160.38718777 -88.32421875 152.4765625 C-103.34048413 146.7754064 -114.29846429 135.92550116 -121.9609375 122.01953125 C-123.00037345 119.19045775 -123.0172448 118.31783078 -121.859375 115.57421875 C-119.78979492 114.09448242 -119.78979492 114.09448242 -117.08984375 112.7421875 C-115.63288086 112.01032227 -115.63288086 112.01032227 -114.14648438 111.26367188 C-113.12361328 110.76802734 -112.10074219 110.27238281 -111.046875 109.76171875 C-110.03560547 109.24673828 -109.02433594 108.73175781 -107.98242188 108.20117188 C-100.51873183 104.51619074 -100.51873183 104.51619074 -97.6262207 104.77075195 C-94.74198755 106.08234672 -94.17700152 108.78085052 -92.859375 111.57421875 C-86.22756763 120.93677033 -76.25351548 125.6880354 -65.234375 128.1640625 C-60.33649091 128.75929147 -55.47672953 128.79895364 -50.546875 128.82421875 C-49.55236328 128.84484375 -48.55785156 128.86546875 -47.53320312 128.88671875 C-36.16744579 128.94642069 -26.19925516 125.54343757 -17.859375 117.57421875 C-13.89433531 112.15533117 -14.01991288 106.01857443 -14.859375 99.57421875 C-16.21095362 94.83183763 -18.48207511 92.4163283 -22.6640625 89.859375 C-33.93235222 84.33331925 -45.75470446 82.32666109 -58.10125732 80.55471802 C-73.6616985 78.2843342 -88.18167175 75.54278624 -100.859375 65.57421875 C-101.48070312 65.13722656 -102.10203125 64.70023437 -102.7421875 64.25 C-110.27715855 58.55799806 -114.2419476 49.71974999 -115.859375 40.57421875 C-117.08902138 28.5107983 -116.22943837 17.45298104 -109.046875 7.32421875 C-108.00787528 6.05461809 -106.9452314 4.80398382 -105.859375 3.57421875 C-105.33472656 2.96835937 -104.81007813 2.3625 -104.26953125 1.73828125 C-79.69123706 -24.7484452 -26.06642884 -22.11373266 0 0 Z " fill="#131313" transform="translate(958.859375,429.42578125)"/>
<path d="M0 0 C0.67854034 0.00209473 1.35708069 0.00418945 2.05618286 0.00634766 C12.78823984 0.07453681 21.80943384 0.98836085 31.625 5.5 C32.27919922 5.77875977 32.93339844 6.05751953 33.60742188 6.34472656 C44.07309325 10.81516235 52.32233063 16.76600661 60.625 24.5 C56.64779724 29.38627768 52.37648106 33.97199481 48 38.5 C47.43772705 39.10030029 46.8754541 39.70060059 46.29614258 40.3190918 C44.6484375 42 44.6484375 42 41.625 44.5 C38.34887126 44.0803973 36.60897197 42.8635551 34.125 40.75 C21.45490781 30.93480754 5.13551758 28.97856632 -10.375 30.5 C-23.2663909 32.71234704 -35.09612597 38.71710405 -43.5234375 48.84375 C-51.49003799 60.27262834 -54.76300191 71.45795808 -54.6875 85.25 C-54.68186035 86.31822998 -54.6762207 87.38645996 -54.67041016 88.48706055 C-54.43767175 103.57242692 -50.31182688 116.14920377 -39.84765625 127.359375 C-26.57180428 138.85252963 -10.60663561 141.42027414 6.42333984 140.67919922 C19.2428902 139.63578051 31.20284725 134.15819442 40.625 125.5 C44.09129835 126.98653506 46.31522036 128.95722351 48.953125 131.6328125 C50.15195312 132.84130859 50.15195312 132.84130859 51.375 134.07421875 C52.6125 135.33685547 52.6125 135.33685547 53.875 136.625 C54.71546875 137.47449219 55.5559375 138.32398438 56.421875 139.19921875 C58.49415683 141.29504923 60.56162393 143.39540713 62.625 145.5 C57.33413137 156.9908006 40.82672601 163.05251505 29.67138672 167.23193359 C19.95833061 170.58981146 10.14511567 170.86482946 -0.0625 170.9375 C-1.26165039 170.9478125 -2.46080078 170.958125 -3.69628906 170.96875 C-27.39507261 170.73507259 -47.6504763 162.38925898 -64.78515625 146.2265625 C-81.43040097 129.0388484 -87.04415159 104.93983694 -86.77880859 81.67041016 C-86.10985336 58.64817872 -76.62197297 36.86542822 -59.96923828 20.94580078 C-43.20659737 5.74390806 -22.28499498 -0.11064355 0 0 Z " fill="#131313" transform="translate(284.375,415.5)"/>
<path d="M0 0 C11.55 0 23.1 0 35 0 C42.01701125 17.44770364 48.87827078 34.94632247 55.625 52.5 C57.54567976 57.49264827 59.46755733 62.48483355 61.390625 67.4765625 C61.8643454 68.7063382 62.3380658 69.93611389 62.82614136 71.20315552 C65.85228862 79.04964635 68.90580384 86.88487598 71.984375 94.7109375 C72.36375214 95.6765863 72.74312927 96.64223511 73.13400269 97.637146 C74.89239474 102.11155478 76.65594074 106.58380936 78.42822266 111.05273438 C79.04349519 112.61580634 79.6585792 114.17895254 80.2734375 115.7421875 C80.55354675 116.44250092 80.83365601 117.14281433 81.12225342 117.86434937 C82.24857254 120.74053914 83 122.87976725 83 126 C83.66 126 84.32 126 85 126 C85.103125 125.34338379 85.20625 124.68676758 85.3125 124.01025391 C86.19487311 120.14673811 87.58100651 116.52619524 89 112.8359375 C89.30733063 112.028078 89.61466125 111.22021851 89.93130493 110.38787842 C90.94985175 107.71523437 91.97465164 105.0450414 93 102.375 C93.72057996 100.4907378 94.44111964 98.60646019 95.16162109 96.72216797 C100.91643776 81.70190179 106.80810196 66.73685708 112.74389648 51.78735352 C119.58434385 34.55868389 126.298328 17.28325937 133 0 C144.55 0 156.1 0 168 0 C166.02234773 5.9329568 163.99758987 11.66257578 161.5859375 17.40625 C161.25928604 18.19154083 160.93263458 18.97683167 160.59608459 19.78591919 C159.525263 22.35848726 158.45009024 24.92921327 157.375 27.5 C156.61432168 29.32586624 155.85399288 31.15187813 155.09399414 32.97802734 C153.5157241 36.76946593 151.93596029 40.56027651 150.35498047 44.35058594 C146.70471173 53.1041121 143.07051376 61.86430158 139.4375 70.625 C138.9125444 71.89043137 138.9125444 71.89043137 138.37698364 73.181427 C131.51579262 89.72267466 124.71650369 106.28902145 117.92765808 122.86006165 C112.30468032 136.58141768 106.64902157 150.2893539 101 164 C90.11 164 79.22 164 68 164 C61.12678479 149.1080337 61.12678479 149.1080337 58.6953125 142.97265625 C58.11485276 141.52725222 57.53436657 140.0818588 56.95385742 138.63647461 C56.65675873 137.89315887 56.35966003 137.14984314 56.05355835 136.38400269 C50.57044368 122.67558528 44.94750923 109.03168672 39.1875 95.4375 C32.90009055 80.59196385 26.75531854 65.69200091 20.67129517 50.76202393 C15.10153053 37.0952784 9.46198631 23.4608874 3.70629883 9.87133789 C3.21282959 8.7033667 2.71936035 7.53539551 2.2109375 6.33203125 C1.78087402 5.31858643 1.35081055 4.3051416 0.90771484 3.26098633 C0 1 0 1 0 0 Z " fill="#121212" transform="translate(346,419)"/>
<path d="M0 0 C7.66865686 -0.09205457 15.33538033 -0.17163142 23.00415039 -0.21972656 C25.61033643 -0.23978535 28.21647779 -0.26703911 30.82250977 -0.30175781 C34.57840026 -0.3505263 38.3336933 -0.37302717 42.08984375 -0.390625 C43.24645004 -0.41127014 44.40305634 -0.43191528 45.5947113 -0.45318604 C55.56014019 -0.45592197 62.83456254 2.00516819 70 9 C74.87554369 15.79093586 75.87743648 22.82540191 75 31 C73.29598009 38.0201539 70.0057054 43.84458938 64 48 C56.77374033 52.22219703 50.32466173 52.5376145 42.08984375 52.390625 C40.88179581 52.38496521 39.67374786 52.37930542 38.42909241 52.37347412 C34.59814614 52.35121353 30.76816014 52.30103374 26.9375 52.25 C24.32878962 52.22992179 21.72006447 52.21167334 19.11132812 52.1953125 C12.74022435 52.15479674 6.37117782 52.07647963 0 52 C0 34.84 0 17.68 0 0 Z " fill="#F5F5F5" transform="translate(711,448)"/>
</svg>
